<?xml version="1.0" encoding="UTF-8"?>
<svg version="1.1" xmlns="http://www.w3.org/2000/svg" width="200" height="229">
<path d="M0 0 C1.91860095 0.91941595 3.80231426 1.91334662 5.65625 2.95703125 C6.74993896 3.56861084 7.84362793 4.18019043 8.97045898 4.81030273 C10.14708932 5.47749613 11.32360008 6.14490043 12.5 6.8125 C13.72375205 7.50059322 14.9477953 8.18816882 16.17211914 8.87524414 C19.78699367 10.90706494 23.39413788 12.95222645 27 15 C28.41901611 15.8048584 28.41901611 15.8048584 29.86669922 16.62597656 C34.96632073 19.52224723 40.05494709 22.4373678 45.14013672 25.35888672 C50.16437272 28.24201071 55.19529638 31.11344016 60.22537231 33.98635864 C63.00464409 35.573838 65.78355738 37.16194455 68.5625 38.75 C71.04166451 40.16667044 73.52083157 41.58333642 76 43 C77.77335624 44.01334614 79.54671235 45.02669251 81.32006836 46.04003906 C82.24356079 46.56774902 83.16705322 47.09545898 84.11853027 47.63916016 C88.41235352 50.09277344 92.70617676 52.54638672 97 55 C97.21038674 70.02054882 97.36901899 85.04098335 97.46630955 100.06269264 C97.51268792 107.03790203 97.57589573 114.0121952 97.67895508 120.98681641 C97.77835815 127.71721365 97.83054995 134.44646241 97.85389519 141.17762375 C97.8705322 143.74619918 97.90302148 146.31472215 97.95157051 148.88289261 C98.01686741 152.47987873 98.02590408 156.07292726 98.02172852 159.67041016 C98.054086 160.73352417 98.08644348 161.79663818 98.11978149 162.89196777 C98.03082971 169.96879335 98.03082971 169.96879335 95.03089809 172.96982193 C92.74513088 174.51429024 90.47621814 175.79005415 88 177 C87.03118896 177.57556641 86.06237793 178.15113281 85.06420898 178.74414062 C83.79299194 179.44313477 83.79299194 179.44313477 82.49609375 180.15625 C81.03345093 180.96630493 81.03345093 180.96630493 79.54125977 181.79272461 C78.51701904 182.35612549 77.49277832 182.91952637 76.4375 183.5 C67.92564104 188.22405971 59.46122899 193.014999 51.0625 197.9375 C41.41537871 203.59102796 31.75206059 209.21482414 22.05419922 214.78100586 C17.48760479 217.4023886 12.9274063 220.02603097 8.42578125 222.7578125 C7.77754395 223.14598145 7.12930664 223.53415039 6.46142578 223.93408203 C4.84699979 224.90415963 3.24134727 225.88880066 1.63671875 226.875 C-1.58021949 228.24756032 -2.67268511 227.93447607 -6 227 C-7.91860095 226.08058405 -9.80231426 225.08665338 -11.65625 224.04296875 C-13.29678345 223.12559937 -13.29678345 223.12559937 -14.97045898 222.18969727 C-16.14708932 221.52250387 -17.32360008 220.85509957 -18.5 220.1875 C-19.72375205 219.49940678 -20.9477953 218.81183118 -22.17211914 218.12475586 C-25.78699367 216.09293506 -29.39413788 214.04777355 -33 212 C-33.94601074 211.46342773 -34.89202148 210.92685547 -35.86669922 210.37402344 C-40.96632073 207.47775277 -46.05494709 204.5626322 -51.14013672 201.64111328 C-56.16437272 198.75798929 -61.19529638 195.88655984 -66.22537231 193.01364136 C-69.00464409 191.426162 -71.78355738 189.83805545 -74.5625 188.25 C-77.04166451 186.83332956 -79.52083157 185.41666358 -82 184 C-83.77335624 182.98665386 -85.54671235 181.97330749 -87.32006836 180.95996094 C-88.24356079 180.43225098 -89.16705322 179.90454102 -90.11853027 179.36083984 C-94.41235352 176.90722656 -98.70617676 174.45361328 -103 172 C-103.21038674 156.97945118 -103.36901899 141.95901665 -103.46630955 126.93730736 C-103.51268792 119.96209797 -103.57589573 112.9878048 -103.67895508 106.01318359 C-103.77835815 99.28278635 -103.83054995 92.55353759 -103.85389519 85.82237625 C-103.8705322 83.25380082 -103.90302148 80.68527785 -103.95157051 78.11710739 C-104.01686741 74.52012127 -104.02590408 70.92707274 -104.02172852 67.32958984 C-104.054086 66.26647583 -104.08644348 65.20336182 -104.11978149 64.10803223 C-104.03082971 57.03120665 -104.03082971 57.03120665 -101.03089809 54.03017807 C-98.74513088 52.48570976 -96.47621814 51.20994585 -94 50 C-93.03118896 49.42443359 -92.06237793 48.84886719 -91.06420898 48.25585938 C-90.21673096 47.78986328 -89.36925293 47.32386719 -88.49609375 46.84375 C-87.52099854 46.30371338 -86.54590332 45.76367676 -85.54125977 45.20727539 C-84.51701904 44.64387451 -83.49277832 44.08047363 -82.4375 43.5 C-73.92564104 38.77594029 -65.46122899 33.985001 -57.0625 29.0625 C-47.41537871 23.40897204 -37.75206059 17.78517586 -28.05419922 12.21899414 C-23.48760479 9.5976114 -18.9274063 6.97396903 -14.42578125 4.2421875 C-13.45342529 3.65993408 -13.45342529 3.65993408 -12.46142578 3.06591797 C-10.84699979 2.09584037 -9.24134727 1.11119934 -7.63671875 0.125 C-4.41978051 -1.24756032 -3.32731489 -0.93447607 0 0 Z " fill="#0A5756" transform="translate(103,1)"/>
<path d="M0 0 C1.91860095 0.91941595 3.80231426 1.91334662 5.65625 2.95703125 C6.74993896 3.56861084 7.84362793 4.18019043 8.97045898 4.81030273 C10.14708932 5.47749613 11.32360008 6.14490043 12.5 6.8125 C13.72375205 7.50059322 14.9477953 8.18816882 16.17211914 8.87524414 C19.78699367 10.90706494 23.39413788 12.95222645 27 15 C28.41901611 15.8048584 28.41901611 15.8048584 29.86669922 16.62597656 C34.96632073 19.52224723 40.05494709 22.4373678 45.14013672 25.35888672 C50.15156875 28.23466324 55.16966168 31.09879147 60.18692017 33.96438599 C63.16131481 35.66333201 66.13532813 37.36294528 69.109375 39.0625 C70.27148251 39.72656577 71.43359186 40.3906283 72.59570312 41.0546875 C80.73046875 45.703125 88.86523438 50.3515625 97 55 C96.39929688 55.44859375 95.79859375 55.8971875 95.1796875 56.359375 C93.4809159 57.63802029 91.79939911 58.93960069 90.125 60.25 C86.26073991 63.00901621 82.09078185 64.99145178 77.82763672 67.05932617 C68.93665177 71.42807198 60.50478879 76.64608895 52.05078125 81.796875 C47.215118 84.74230253 42.34548188 87.3981511 37.2265625 89.82421875 C34.97037725 90.94069193 34.97037725 90.94069193 33.01953125 92.48828125 C30.79864801 94.1507219 28.56093109 95.29890524 26.0625 96.5 C22.6013486 98.19505068 19.26588719 99.94715662 16 102 C11.22222222 105 11.22222222 105 9 105 C9 105.66 9 106.32 9 107 C7.46663099 107.84850459 5.92281854 108.67814945 4.375 109.5 C3.51648438 109.9640625 2.65796875 110.428125 1.7734375 110.90625 C-1.47790486 112.18846952 -3.52899073 112.40992664 -7 112 C-9.91015625 110.671875 -9.91015625 110.671875 -13.0625 108.75 C-14.2950628 108.01346857 -15.52817198 107.27785102 -16.76171875 106.54296875 C-17.43380371 106.13739746 -18.10588867 105.73182617 -18.79833984 105.31396484 C-22.95409708 102.83378238 -27.16930539 100.45665083 -31.375 98.0625 C-33.20442748 97.01692778 -35.03385457 95.97135487 -36.86328125 94.92578125 C-41.08682697 92.51663551 -45.32062514 90.1266816 -49.5625 87.75 C-67.48679093 77.69819962 -85.33364788 67.49886069 -103 57 C-100.07370751 53.82559186 -97.15654511 51.7465497 -93.3984375 49.63671875 C-91.72370361 48.68913696 -91.72370361 48.68913696 -90.01513672 47.72241211 C-88.80176234 47.04409998 -87.58838331 46.36579616 -86.375 45.6875 C-85.11301227 44.97545541 -83.85146267 44.26263379 -82.59033203 43.54907227 C-80.64596335 42.44906737 -78.70133341 41.34955572 -76.75534058 40.25242615 C-70.43720922 36.69008598 -64.15341809 33.06933228 -57.875 29.4375 C-55.74221542 28.20568082 -53.60940285 26.97391011 -51.4765625 25.7421875 C-50.41856445 25.13084961 -49.36056641 24.51951172 -48.27050781 23.88964844 C-44.87603332 21.92837398 -41.48109282 19.967908 -38.0859375 18.0078125 C-36.38014526 17.02276733 -36.38014526 17.02276733 -34.63989258 16.01782227 C-32.41165844 14.73255563 -30.18235893 13.44913392 -27.9519043 12.16772461 C-23.42227746 9.56435031 -18.90022398 6.95642272 -14.43359375 4.24609375 C-13.78422852 3.85736084 -13.13486328 3.46862793 -12.46582031 3.06811523 C-10.84981761 2.09749307 -9.24273767 1.11205388 -7.63671875 0.125 C-4.41978051 -1.24756032 -3.32731489 -0.93447607 0 0 Z " fill="#0B1216" transform="translate(103,1)"/>
<path d="M0 0 C8.73577781 4.3678889 17.15440254 8.70371061 25.5 13.6875 C33.48388603 18.4053371 41.52299311 22.97709565 49.6875 27.375 C56.67652984 31.14201873 63.48985017 35.04844255 70.2109375 39.27734375 C74.7032158 42.05198623 79.35059093 44.49647204 84 47 C89.28 49.97 94.56 52.94 100 56 C100 93.95 100 131.9 100 171 C96.33058818 169.53223527 93.18873692 168.08247516 89.78125 166.1640625 C88.77795654 165.60090332 87.77466309 165.03774414 86.7409668 164.45751953 C85.67144775 163.85278809 84.60192871 163.24805664 83.5 162.625 C82.38214111 161.99577637 81.26428223 161.36655273 80.11254883 160.71826172 C70.68328075 155.40379038 61.28153121 150.04166863 51.89208984 144.65722656 C46.8550174 141.77088115 41.8135492 138.89222527 36.77261353 136.01263428 C33.99408938 134.42535721 31.21580455 132.8376614 28.4375 131.25 C24.7559375 129.14625 24.7559375 129.14625 21 127 C14.07 123.04 7.14 119.08 0 115 C0 77.05 0 39.1 0 0 Z " fill="#BFC3C5" transform="translate(0,58)"/>
<path d="M0 0 C0.33 0 0.66 0 1 0 C1 37.95 1 75.9 1 115 C0.01 114.67 -0.98 114.34 -2 114 C-1.505 113.01 -1.505 113.01 -1 112 C-0.89611373 110.50518979 -0.85351382 109.00590772 -0.84178162 107.50753784 C-0.8319928 106.56240326 -0.82220398 105.61726868 -0.81211853 104.64349365 C-0.80636307 103.60340149 -0.8006076 102.56330933 -0.79467773 101.49169922 C-0.78477814 100.39900726 -0.77487854 99.30631531 -0.76467896 98.18051147 C-0.7329969 94.55525914 -0.70828002 90.92999368 -0.68359375 87.3046875 C-0.66303001 84.79647473 -0.6420337 82.28826548 -0.62062073 79.78005981 C-0.57099567 73.8444346 -0.5257459 67.90878617 -0.48259836 61.97311127 C-0.42839825 54.55365216 -0.36743626 47.13425124 -0.30664062 39.71484375 C-0.19898582 26.47660207 -0.09736924 13.23832112 0 0 Z " fill="#8A999A" transform="translate(99,114)"/>
<path d="M0 0 C0.33 0 0.66 0 1 0 C1 5.94 1 11.88 1 18 C0.01 17.67 -0.98 17.34 -2 17 C-1.67 16.34 -1.34 15.68 -1 15 C-0.76827173 12.45384991 -0.58105471 9.92603775 -0.4375 7.375 C-0.39431641 6.66859375 -0.35113281 5.9621875 -0.30664062 5.234375 C-0.20055249 3.48981463 -0.09977111 1.74493303 0 0 Z " fill="#879293" transform="translate(99,211)"/>
<path d="M0 0 C-0.66 1.32 -1.32 2.64 -2 4 C-4.31 4 -6.62 4 -9 4 C-8.1028125 3.566875 -8.1028125 3.566875 -7.1875 3.125 C-1.11111111 0 -1.11111111 0 0 0 Z " fill="#174142" transform="translate(107,110)"/>
</svg>
